<svg width="59" height="65" viewBox="0 0 59 65" fill="none" xmlns="http://www.w3.org/2000/svg">
<path d="M4.91667 65C4.91667 65 0 65 0 59.5833C0 54.1667 4.91667 37.9167 29.5 37.9167C54.0833 37.9167 59 54.1667 59 59.5833C59 65 54.0833 65 54.0833 65H4.91667ZM29.5 32.5C33.4119 32.5 37.1637 30.7879 39.9298 27.7405C42.696 24.693 44.25 20.5598 44.25 16.25C44.25 11.9402 42.696 7.80698 39.9298 4.75952C37.1637 1.71205 33.4119 0 29.5 0C25.5881 0 21.8363 1.71205 19.0702 4.75952C16.304 7.80698 14.75 11.9402 14.75 16.25C14.75 20.5598 16.304 24.693 19.0702 27.7405C21.8363 30.7879 25.5881 32.5 29.5 32.5Z" fill="black"/>
</svg>
