<svg width="80" height="41" viewBox="0 0 80 41" fill="none" xmlns="http://www.w3.org/2000/svg">
<path d="M18.0616 41C14.8288 40.9992 11.6555 40.0141 8.87254 38.1474C6.08961 36.2806 3.79909 33.6006 2.23994 30.387C0.680787 27.1734 -0.0898775 23.5439 0.00834163 19.8772C0.106561 16.2104 1.07006 12.6407 2.79834 9.54051C4.52662 6.44029 6.95634 3.92315 9.83405 2.25165C12.7118 0.580148 15.932 -0.184458 19.1589 0.0375952C22.3857 0.259648 25.5009 1.46022 28.1796 3.51408C30.8582 5.56793 33.0021 8.39981 34.3876 11.7143H72.2577L80 20.5L72.2577 29.2857L67.0962 23.4286L61.9346 29.2857L56.7731 23.4286L51.6116 29.2857L46.45 23.4286L41.2885 29.2857H34.3876C32.9222 32.7914 30.6101 35.7531 27.7201 37.8268C24.8301 39.9004 21.4809 41.0008 18.0616 41V41ZM12.9001 26.3571C14.269 26.3571 15.5819 25.7401 16.5499 24.6416C17.5178 23.5432 18.0616 22.0534 18.0616 20.5C18.0616 18.9466 17.5178 17.4568 16.5499 16.3584C15.5819 15.26 14.269 14.6429 12.9001 14.6429C11.5312 14.6429 10.2183 15.26 9.25035 16.3584C8.28237 17.4568 7.73857 18.9466 7.73857 20.5C7.73857 22.0534 8.28237 23.5432 9.25035 24.6416C10.2183 25.7401 11.5312 26.3571 12.9001 26.3571V26.3571Z" fill="black"/>
</svg>
